<svg width="440" height="392" viewBox="62 91 440 392" fill="none" xmlns="http://www.w3.org/2000/svg">
<path d="M366.422 200.349L426.556 200.369C427.265 205.628 429.293 213.197 429.353 218.277C429.088 227.509 427.503 236.771 426.728 245.981C426.36 250.35 426.48 254.773 426.495 259.158L426.501 415.243L371.883 415.249C372.276 406.036 372.58 396.821 372.798 387.605C372.988 378.069 372.837 367.994 372.84 358.419L372.864 304.631L369.521 304.594C365.915 313.315 362.378 322.111 358.681 330.79C355.806 337.54 351.708 344.623 348.238 351.147L330.265 384.943C318.207 384.859 306.148 384.871 294.089 384.974C287.92 372.321 280.498 358.778 273.989 346.189C266.945 332.561 259.688 318.038 252.401 304.64C251.499 304.597 250.356 304.637 249.436 304.643C248.877 340.546 251.431 379.123 252.411 415.231C233.241 415.445 213.706 415.252 194.517 415.24C194.311 402.123 194.494 388.495 194.493 375.332L194.487 298.807L194.509 266.728C194.512 261.128 194.688 254.321 194.279 248.803C194.084 246.171 192.762 240.262 192.198 237.441L188.38 218.49C190.444 213.476 193.046 205.59 194.711 200.349L252.516 200.357C254.645 205.064 257.337 209.936 259.728 214.553L269.035 232.743L297.259 287.965C301.752 296.808 307.31 306.803 311.441 315.787C313.312 315.907 315.666 315.85 317.579 315.853C319.887 310.681 322.19 305.216 324.317 299.968C337.818 266.657 353.12 233.709 366.422 200.349Z" fill="black"/>
<path d="M148.191 91.6737C154.28 91.4854 154.561 97.5706 154.379 102.086C154.33 106.227 154.375 110.516 155.086 114.609C156.839 124.695 157.395 136.858 160.311 146.543C161.132 149.299 162.342 151.924 163.905 154.338C175.666 172.413 207.648 175.885 227.516 176.3C229.769 176.347 235.102 175.712 236.363 178.128C237.094 179.526 236.007 181.658 234.265 181.988C230.755 182.654 227.088 182.128 223.53 182.35C211.188 182.966 198.636 184.24 187.178 189.2C166.864 197.859 161.277 216.314 157.502 236.29C156.433 241.947 155.061 248.531 154.68 254.455C154.462 257.859 156.071 265.021 154.844 268.549C154.578 269.312 152.473 270.106 151.7 270.379C144.831 270.742 145.312 267.197 145.211 261.948C145.011 251.532 142.659 241.015 140.498 230.864C139.193 224.735 137.997 218.212 135.57 212.437C133.622 207.739 130.84 203.432 127.359 199.725C112.624 184.119 88.3485 182.631 68.1567 182.32C65.653 182.282 62.6182 181.89 62.7383 178.704C63.3714 177.284 64.6125 176.819 66.0519 176.517C70.0387 175.681 75.4749 176.239 79.6543 175.995C94.9953 175.101 114.32 172.422 126.786 163.013C130.809 159.975 134.744 155.953 137.058 151.431C141.356 143.033 144.204 117.454 144.788 107.688C145.014 103.892 144.353 99.6823 144.987 95.9617C145.352 93.8222 146.466 92.8684 148.191 91.6737Z" fill="#E4FE8C"/>
<path d="M443.282 403.064C447.422 403.683 446.116 408.997 446.583 412.298C447.341 417.651 447.489 424.99 449.842 429.866C453.581 437.606 465.555 439.99 473.219 440.533C475.953 440.711 479.692 440.449 482.149 441.351C482.788 442.181 482.658 441.728 482.589 442.745C482.103 443.192 481.575 443.484 480.902 443.493C472.55 443.599 462.58 444.049 455.838 449.716C449.323 455.196 447.67 466.195 446.668 474.234C446.393 476.448 446.743 479.047 446.505 481.298C446.396 482.327 446.019 482.381 445.25 482.876C444.103 482.785 444.052 482.788 442.968 482.438C442.799 482.251 442.633 482.061 442.464 481.874C442.241 478.721 441.529 472.088 440.962 469.372C439.697 463.343 439.368 458.328 435.853 453.292C430.877 446.167 422.388 444.462 414.28 443.753C412.101 443.563 407.479 443.898 405.813 442.938L405.617 442.172L405.979 441.595C408.067 440.376 413.369 440.763 415.895 440.473C438.466 437.905 440.675 430.934 441.849 409.923C441.997 407.27 441.625 405.037 443.282 403.064Z" fill="#B0EAFE"/>
<path d="M480.875 144.604C481.222 144.702 482.125 144.956 482.239 145.385C483.223 149.011 482.577 153.582 484.415 156.958C487.614 162.842 496.045 160.99 501.461 162.747C497.366 163.48 490.48 163.266 487.022 165.858C483.289 168.657 483.114 177.161 482.526 181.052L482.487 181.31C482.242 181.249 481.234 180.933 481.222 180.895C479.686 176.509 480.387 171.526 477.505 167.499C473.908 162.473 467.317 163.873 461.919 162.702C466.24 161.513 473.325 161.899 476.98 159.299C480.317 156.923 480.444 148.57 480.875 144.604Z" fill="#FECA81"/>
</svg>
