<svg width="172" height="142" viewBox="0 0 172 142" fill="none" xmlns="http://www.w3.org/2000/svg">
<path d="M85.9375 141.29C84.4809 141.29 82.7816 141.047 81.5678 140.319L5.34075 100.748C1.94209 99.0485 0 95.6498 0 92.2511V9.71063C0 4.36978 4.3697 -1.33024e-05 9.71045 -1.33024e-05C15.0512 -1.33024e-05 19.4209 4.36978 19.4209 9.71063V86.4247L85.9375 120.897L152.454 86.4247V9.71063C152.454 4.36978 156.824 -1.33024e-05 162.165 -1.33024e-05C167.505 -1.33024e-05 171.875 4.36978 171.875 9.71063V92.2511C171.875 95.8926 169.933 99.2913 166.534 100.991L90.3072 140.319C89.0934 141.047 87.3941 141.29 85.9375 141.29Z" fill="#1FB6FF"/>
<path d="M49.8907 20.5644L84.6323 0.414873C85.6681 -0.104487 86.1973 -0.093912 87.2534 0.414781L121.991 20.5684C123.69 21.5395 123.69 23.963 121.991 24.934L87.2536 44.841C86.2673 45.3355 85.6038 45.3265 84.6327 44.841L49.8907 24.9342C48.1914 23.9631 48.1914 21.5354 49.8907 20.5644Z" fill="#1FB6FF"/>
<path d="M44.666 69.7999V29.7435C44.666 27.8013 46.8509 26.5875 48.5502 27.5586L83.2651 47.4654C83.9933 47.9509 84.4789 48.6792 84.4789 49.6503V89.7067C84.4789 91.6488 82.294 92.8627 80.5947 91.8916L45.8798 71.9848C45.1515 71.4992 44.666 70.5282 44.666 69.7999Z" fill="#1FB6FF"/>
<path d="M88.6103 47.4654L123.325 27.5586C125.024 26.5875 127.209 27.8013 127.209 29.7435V69.7999C127.209 70.7709 126.724 71.4992 125.996 71.9848L91.2807 91.8916C89.5813 92.8627 87.3965 91.6488 87.3965 89.7067V49.6503C87.3965 48.6792 87.882 47.9509 88.6103 47.4654Z" fill="#1FB6FF"/>
</svg>
